<?xml version="1.0" encoding="utf-8"?>
<!-- Generator: Adobe Illustrator 25.2.3, SVG Export Plug-In . SVG Version: 6.00 Build 0)  -->
<svg version="1.1" id="Layer_1" xmlns="http://www.w3.org/2000/svg" xmlns:xlink="http://www.w3.org/1999/xlink" x="0px" y="0px" width="20%" height="auto"
	 viewBox="0 0 483.81 156.85" style="enable-background:new 0 0 483.81 156.85;" xml:space="preserve">
<style type="text/css">
	.st0{fill:#423138;}
</style>
<g>
	<g>
		<path class="st0" d="M56.2,125.28c0,2.62-0.09,4.92-0.26,6.91s-0.41,3.74-0.71,5.26c-0.91,4.17-2.69,7.75-5.35,10.75
			c-5.01,5.76-11.89,8.65-20.65,8.65c-7.39,0-13.48-1.99-18.26-5.97c-4.93-4.1-7.77-9.76-8.53-17.01H15.3
			c0.49,2.73,1.31,4.83,2.45,6.31c2.65,3.45,6.52,5.18,11.6,5.18c9.37,0,14.05-5.74,14.05-17.23v-7.74
			c-5.08,5.2-10.94,7.79-17.58,7.79c-7.55,0-13.73-2.73-18.54-8.19C2.43,114.46,0,107.54,0,99.23c0-8.08,2.26-14.94,6.77-20.59
			c4.85-5.99,11.26-8.99,19.22-8.99c6.98,0,12.78,2.6,17.41,7.79v-6.26h12.8V125.28z M43.91,99.01c0-5.38-1.44-9.69-4.32-12.91
			c-2.92-3.3-6.65-4.95-11.21-4.95c-4.85,0-8.68,1.8-11.49,5.4c-2.54,3.22-3.81,7.39-3.81,12.51c0,5.04,1.27,9.18,3.81,12.4
			c2.77,3.53,6.6,5.29,11.49,5.29s8.76-1.78,11.6-5.35C42.6,108.18,43.91,104.05,43.91,99.01z"/>
		<path class="st0" d="M113.19,71.19h12.85v55.4h-12.85v-5.8c-5.27,4.93-10.94,7.39-17.01,7.39c-7.66,0-13.99-2.77-19-8.3
			c-4.97-5.65-7.45-12.7-7.45-21.16c0-8.3,2.48-15.22,7.45-20.76c4.97-5.54,11.19-8.3,18.66-8.3c6.45,0,12.23,2.65,17.35,7.96V71.19
			z M82.81,98.72c0,5.31,1.42,9.63,4.27,12.97c2.92,3.38,6.6,5.06,11.03,5.06c4.74,0,8.57-1.63,11.49-4.89
			c2.92-3.38,4.38-7.66,4.38-12.85c0-5.19-1.46-9.48-4.38-12.85c-2.92-3.3-6.71-4.95-11.38-4.95c-4.4,0-8.08,1.67-11.03,5
			C84.27,89.58,82.81,93.75,82.81,98.72z"/>
		<path class="st0" d="M142.2,71.19h12.8v4.95c2.35-2.46,4.44-4.15,6.26-5.06c1.86-0.95,4.06-1.42,6.6-1.42
			c3.37,0,6.9,1.1,10.58,3.3l-5.86,11.72c-2.43-1.74-4.8-2.62-7.11-2.62c-6.98,0-10.47,5.27-10.47,15.81v28.72h-12.8V71.19z"/>
		<path class="st0" d="M225.81,30.52h12.85v96.07h-12.85v-5.8c-5.04,4.93-10.75,7.39-17.12,7.39c-7.58,0-13.88-2.77-18.88-8.3
			c-4.97-5.65-7.45-12.7-7.45-21.16c0-8.27,2.48-15.17,7.45-20.7c4.93-5.57,11.13-8.36,18.6-8.36c6.48,0,12.29,2.65,17.41,7.96
			V30.52z M195.43,98.72c0,5.31,1.42,9.63,4.27,12.97c2.92,3.38,6.6,5.06,11.03,5.06c4.74,0,8.57-1.63,11.49-4.89
			c2.92-3.38,4.38-7.66,4.38-12.85c0-5.19-1.46-9.48-4.38-12.85c-2.92-3.3-6.71-4.95-11.38-4.95c-4.4,0-8.08,1.67-11.03,5
			C196.89,89.58,195.43,93.75,195.43,98.72z"/>
		<path class="st0" d="M305.27,101.91h-39.7c0.34,4.55,1.82,8.17,4.44,10.86c2.62,2.65,5.97,3.98,10.07,3.98
			c3.18,0,5.82-0.76,7.91-2.28c2.05-1.52,4.38-4.32,7-8.42l10.81,6.03c-1.67,2.84-3.43,5.28-5.29,7.31
			c-1.86,2.03-3.85,3.7-5.97,5.01c-2.12,1.31-4.42,2.26-6.88,2.87c-2.46,0.61-5.14,0.91-8.02,0.91c-8.27,0-14.9-2.65-19.91-7.96
			c-5.01-5.35-7.51-12.44-7.51-21.27c0-8.76,2.43-15.85,7.28-21.27c4.89-5.35,11.38-8.02,19.45-8.02c8.15,0,14.6,2.6,19.34,7.79
			c4.7,5.16,7.05,12.3,7.05,21.44L305.27,101.91z M292.13,91.44c-1.78-6.83-6.09-10.24-12.91-10.24c-1.55,0-3.01,0.24-4.38,0.71
			c-1.36,0.47-2.61,1.16-3.73,2.05c-1.12,0.89-2.08,1.96-2.87,3.21c-0.8,1.25-1.4,2.67-1.82,4.27H292.13z"/>
		<path class="st0" d="M319.26,71.19h12.85v5.12c4.47-4.44,9.52-6.66,15.13-6.66c6.45,0,11.47,2.03,15.07,6.09
			c3.11,3.45,4.66,9.08,4.66,16.89v33.96h-12.85V95.65c0-5.46-0.76-9.23-2.28-11.32c-1.48-2.12-4.17-3.19-8.08-3.19
			c-4.25,0-7.26,1.4-9.04,4.21c-1.75,2.77-2.62,7.6-2.62,14.5v26.73h-12.85V71.19z"/>
		<path class="st0" d="M433.58,101.91h-39.7c0.34,4.55,1.82,8.17,4.44,10.86c2.62,2.65,5.97,3.98,10.07,3.98
			c3.18,0,5.82-0.76,7.91-2.28c2.05-1.52,4.38-4.32,7-8.42l10.81,6.03c-1.67,2.84-3.43,5.28-5.29,7.31
			c-1.86,2.03-3.85,3.7-5.97,5.01c-2.12,1.31-4.42,2.26-6.88,2.87c-2.46,0.61-5.14,0.91-8.02,0.91c-8.27,0-14.9-2.65-19.91-7.96
			c-5.01-5.35-7.51-12.44-7.51-21.27c0-8.76,2.43-15.85,7.28-21.27c4.89-5.35,11.38-8.02,19.45-8.02c8.15,0,14.6,2.6,19.34,7.79
			c4.7,5.16,7.05,12.3,7.05,21.44L433.58,101.91z M420.45,91.44c-1.78-6.83-6.09-10.24-12.91-10.24c-1.55,0-3.01,0.24-4.38,0.71
			c-1.36,0.47-2.61,1.16-3.73,2.05c-1.12,0.89-2.08,1.96-2.87,3.21c-0.8,1.25-1.4,2.67-1.82,4.27H420.45z"/>
		<path class="st0" d="M447.58,71.19h12.8v4.95c2.35-2.46,4.44-4.15,6.26-5.06c1.86-0.95,4.06-1.42,6.6-1.42
			c3.38,0,6.9,1.1,10.58,3.3l-5.86,11.72c-2.43-1.74-4.8-2.62-7.11-2.62c-6.98,0-10.47,5.27-10.47,15.81v28.72h-12.8V71.19z"/>
	</g>
	<g>
		<path class="st0" d="M31.62,23.61v31.82h-9.37V23.61h-4v-8.75h4V0h9.37v14.87h7.29v8.75H31.62z"/>
		<path class="st0" d="M82.97,37.35H53.9c0.25,3.33,1.33,5.98,3.25,7.95c1.92,1.94,4.37,2.92,7.37,2.92c2.33,0,4.26-0.56,5.79-1.67
			c1.5-1.11,3.21-3.16,5.12-6.16l7.91,4.41c-1.22,2.08-2.51,3.87-3.87,5.35c-1.36,1.49-2.82,2.71-4.37,3.67
			c-1.56,0.96-3.23,1.66-5.04,2.1c-1.8,0.44-3.76,0.67-5.87,0.67c-6.05,0-10.91-1.94-14.58-5.83c-3.66-3.91-5.5-9.11-5.5-15.57
			c0-6.41,1.78-11.6,5.33-15.57c3.58-3.91,8.33-5.87,14.24-5.87c5.97,0,10.69,1.9,14.16,5.71c3.44,3.78,5.16,9.01,5.16,15.7
			L82.97,37.35z M73.35,29.69c-1.31-5-4.46-7.5-9.45-7.5c-1.14,0-2.21,0.17-3.21,0.52c-1,0.35-1.91,0.85-2.73,1.5
			c-0.82,0.65-1.52,1.44-2.1,2.35c-0.58,0.92-1.03,1.96-1.33,3.12H73.35z"/>
		<path class="st0" d="M123.11,14.87h9.41v40.56h-9.41v-4.25c-3.86,3.61-8.01,5.41-12.45,5.41c-5.61,0-10.24-2.03-13.91-6.08
			c-3.64-4.14-5.46-9.3-5.46-15.49c0-6.08,1.82-11.15,5.46-15.2c3.64-4.05,8.19-6.08,13.66-6.08c4.72,0,8.95,1.94,12.7,5.83V14.87z
			 M100.88,35.02c0,3.89,1.04,7.05,3.12,9.49c2.14,2.47,4.83,3.71,8.08,3.71c3.47,0,6.27-1.19,8.41-3.58
			c2.14-2.47,3.21-5.61,3.21-9.41c0-3.8-1.07-6.94-3.21-9.41c-2.14-2.42-4.91-3.62-8.33-3.62c-3.22,0-5.91,1.22-8.08,3.66
			C101.94,28.33,100.88,31.39,100.88,35.02z"/>
		<path class="st0" d="M144.35,14.87h9.37v3.75c1.8-1.89,3.35-3.17,4.62-3.83c1.36-0.69,3.07-1.04,5.12-1.04c4.58,0,8.2,2,10.87,6
			c2.94-4,6.93-6,11.95-6c9.13,0,13.7,5.54,13.7,16.62v25.07h-9.41V32.9c0-3.89-0.47-6.64-1.42-8.25c-0.97-1.64-2.57-2.46-4.79-2.46
			c-2.58,0-4.46,0.97-5.64,2.92c-1.18,1.94-1.77,5.07-1.77,9.37v20.95h-9.41v-22.4c0-7.22-2.08-10.83-6.25-10.83
			c-2.64,0-4.56,0.99-5.77,2.96c-1.21,1.97-1.81,5.08-1.81,9.33v20.95h-9.37V14.87z"/>
	</g>
</g>
</svg>
